<svg xmlns="http://www.w3.org/2000/svg" viewBox="0 0 512 512">
  <path fill="#FFF" d="M223.22 71.227c16.066-15.298 38.918-20.465 60.475-21.109 22.799-.205 45.589-.081 68.388-.072.09 24.051.098 48.111-.009 72.161-14.734-.026-29.478.036-44.212-.026-9.343-.582-18.937 6.5-20.635 15.762-.224 16.093-.081 32.195-.072 48.289 21.61.089 43.22-.027 64.829.054-1.582 23.281-4.47 46.456-7.858 69.541-19.088.179-38.187-.018-57.274.099-.17 68.665.089 137.33-.134 205.995-28.352.116-56.721-.054-85.072.08-.537-68.674.044-137.383-.295-206.066-13.832-.144-27.672.099-41.503-.116.053-23.085.018-46.169.026-69.246 13.822-.169 27.654.036 41.477-.098.42-22.442-.421-44.91.438-67.333 1.386-17.758 8.154-35.649 21.431-47.915z"/>
</svg>
