<svg xmlns="http://www.w3.org/2000/svg" viewBox="0 0 72 50">
  <path d="M36.054 0c2.855.008 22.417.113 27.593 1.53a8.947 8.947 0 016.294 6.294c1.37 5.004 1.466 14.867 1.471 16.874v.369c0 .336-.022 11.663-1.47 17.168a8.947 8.947 0 01-6.295 6.294c-5.294 1.394-25.635 1.467-27.761 1.47h-.36c-2.12-.003-22.411-.08-27.761-1.528a8.947 8.947 0 01-6.294-6.295C.044 36.812 0 25.69 0 25.031v-.062c.001-.655.044-11.724 1.47-17.145.824-3.06 3.295-5.53 6.295-6.353C12.94.108 32.503.008 35.357 0zm-7.466 14.294v21.412L47.176 25 28.588 14.294z" fill="#FFF" fill-rule="nonzero"/>
</svg>
